<svg width="205" height="203" viewBox="0 0 205 203" fill="none" xmlns="http://www.w3.org/2000/svg">
<g id="E-Commerce 04">
<g id="Group">
<path id="Vector" d="M133.85 35.3424C133.85 35.3424 110.564 64.6943 73.3054 47.1864C36.0472 29.6785 -1.21119 77.0529 30.8724 105.889C62.956 134.726 31.5598 150.572 53.3561 168.245C78.129 188.331 99.6967 147.599 119.361 156.869C162.76 177.325 194.912 169.227 187.668 145.54C174.951 103.96 158.689 101.255 171.108 79.6275C183.527 57.9997 156.118 13.0312 133.85 35.3424Z" fill="#C2EFEF"/>
<g id="Group_2">
<g id="Group_3">
<path id="Vector_2" d="M103.309 98.0818V159.662L55.2621 139.011L55.4913 77.6533L103.309 98.0818Z" fill="#4AFFFF"/>
<path id="Vector_3" d="M103.31 98.1186V159.699L151.124 139.761V77.8497L103.31 98.1186Z" fill="#A3FFFF"/>
<path id="Vector_4" d="M103.309 98.0818L151.357 78.0559L103.687 57.0288L55.2621 77.5553L103.309 98.0818Z" fill="#0AE2E2"/>
</g>
<path id="Vector_5" d="M42.1412 88.5404L90.4944 111.896C90.6244 111.958 90.7714 111.977 90.913 111.948C91.0546 111.92 91.1829 111.846 91.2781 111.738L103.309 98.0816L55.2621 77.5552L42.0336 87.4253C41.9431 87.4927 41.8716 87.5822 41.826 87.6851C41.7803 87.788 41.762 87.9009 41.7728 88.0129C41.7836 88.1249 41.8231 88.2322 41.8877 88.3246C41.9522 88.417 42.0395 88.4913 42.1412 88.5404Z" fill="#069F9F"/>
<path id="Vector_6" d="M151.356 78.0559L164.701 90.061C164.782 90.1342 164.844 90.2265 164.88 90.3295C164.917 90.4325 164.927 90.5429 164.91 90.6508C164.892 90.7587 164.848 90.8606 164.782 90.9472C164.715 91.0339 164.627 91.1026 164.527 91.1471L116.77 112.357C116.643 112.413 116.5 112.428 116.364 112.399C116.227 112.37 116.103 112.299 116.01 112.195L103.309 98.0817L151.356 78.0559Z" fill="#069F9F"/>
<path id="Vector_7" d="M103.686 57.0287L151.49 78.0559L158.365 76.4702C158.5 76.4391 158.622 76.3662 158.713 76.2621C158.804 76.158 158.86 76.028 158.873 75.8905C158.885 75.7529 158.854 75.615 158.783 75.4962C158.712 75.3775 158.606 75.284 158.478 75.2291L114.828 56.4081C114.732 56.3669 114.628 56.3488 114.525 56.3553L103.686 57.0287Z" fill="#069F9F"/>
<path id="Vector_8" d="M103.687 57.0287L56.151 77.6532L50.1418 76.6483C50.0027 76.6225 49.8756 76.5528 49.7794 76.4496C49.6831 76.3463 49.6228 76.215 49.6074 76.075C49.5919 75.935 49.6221 75.7938 49.6936 75.6722C49.765 75.5506 49.8739 75.4551 50.004 75.3999L94.7334 56.2177C94.8323 56.1759 94.9399 56.1587 95.0469 56.1677L103.687 57.0287Z" fill="#069F9F"/>
<path id="Vector_9" d="M153.231 150.097C159.785 150.097 165.099 144.81 165.099 138.287C165.099 131.765 159.785 126.477 153.231 126.477C146.676 126.477 141.363 131.765 141.363 138.287C141.363 144.81 146.676 150.097 153.231 150.097Z" fill="#21CBCB" stroke="white" stroke-width="15" stroke-miterlimit="10"/>
<path id="Vector_10" d="M157.003 134.787C156.807 134.109 156.532 133.558 156.179 133.138C155.838 132.728 155.395 132.414 154.895 132.226C153.815 131.855 152.641 131.855 151.561 132.226C151.061 132.413 150.62 132.728 150.282 133.138C149.924 133.558 149.649 134.109 149.458 134.787C149.267 135.465 149.169 136.295 149.169 137.27V139.26C149.169 140.236 149.267 141.065 149.463 141.748C149.617 142.355 149.899 142.922 150.292 143.412C150.632 143.826 151.075 144.145 151.576 144.339C152.65 144.722 153.825 144.722 154.9 144.339C155.398 144.145 155.838 143.826 156.175 143.412C156.561 142.92 156.84 142.353 156.993 141.748C157.185 141.065 157.283 140.236 157.283 139.26H157.293V137.27C157.292 136.294 157.194 135.465 157.003 134.787ZM155.213 139.558C155.22 140.089 155.177 140.62 155.086 141.143C155.024 141.515 154.896 141.874 154.709 142.202C154.564 142.455 154.35 142.661 154.091 142.797C153.825 142.924 153.533 142.988 153.238 142.982C152.943 142.987 152.651 142.923 152.385 142.797C152.123 142.661 151.904 142.454 151.752 142.202C151.561 141.874 151.428 141.516 151.36 141.143C151.26 140.621 151.214 140.089 151.223 139.558V136.953C151.215 136.423 151.259 135.893 151.356 135.372C151.42 135.007 151.552 134.656 151.743 134.338C151.895 134.095 152.113 133.899 152.371 133.772C152.638 133.656 152.927 133.597 153.219 133.597C153.511 133.597 153.799 133.656 154.067 133.772C154.327 133.896 154.545 134.093 154.694 134.338C154.886 134.656 155.017 135.007 155.082 135.372C155.179 135.893 155.223 136.423 155.215 136.953V139.558H155.213Z" fill="white"/>
</g>
</g>
</g>
</svg>
